STARTFONT 2.1
COMMENT $XConsortium: lutBS19.bdf,v 1.3 94/04/02 16:11:36 gildea Exp $
FONT -B&H-LucidaTypewriter-Bold-R-Normal-Sans-19-190-75-75-M-110-ISO8859-1
SIZE 19 72 72
FONTBOUNDINGBOX 13 22 5 -4
STARTPROPERTIES 20
FONTNAME_REGISTRY ""
FOUNDRY "B&H"
FAMILY_NAME "LucidaTypewriter"
WEIGHT_NAME "Bold"
SLANT "R"
SETWIDTH_NAME "Normal"
ADD_STYLE_NAME "Sans"
PIXEL_SIZE 19
POINT_SIZE 190
RESOLUTION_X 75
RESOLUTION_Y 75
SPACING "M"
AVERAGE_WIDTH "110"
CHARSET_REGISTRY "ISO8859"
CHARSET_ENCODING "1"
COPYRIGHT "Copyright Bigelow & Holmes 1986, 1985."
FONT_ASCENT 18
FONT_DESCENT 4
DEFAULT_CHAR 0
FACE_NAME "Lucida Sans Typewriter Bold"
ENDPROPERTIES
CHARS 190
STARTCHAR space
ENCODING 32
SWIDTH 602 0
DWIDTH 11 0
BBX 1 1 0 0
BITMAP
00
ENDCHAR
STARTCHAR exclam
ENCODING 33
SWIDTH 602 0
DWIDTH 11 0
BBX 3 14 4 0
BITMAP
e0
e0
e0
e0
e0
e0
c0
c0
c0
c0
00
00
e0
e0
ENDCHAR
STARTCHAR quotedbl
ENCODING 34
SWIDTH 602 0
DWIDTH 11 0
BBX 7 5 2 9
BITMAP
c6
c6
c6
c6
c6
ENDCHAR
STARTCHAR numbersign
ENCODING 35
SWIDTH 602 0
DWIDTH 11 0
BBX 10 14 1 0
BITMAP
0d80
0d80
1d80
1b80
7fc0
7fc0
3b00
3600
ff80
ff80
7600
6e00
6c00
6c00
ENDCHAR
STARTCHAR dollar
ENCODING 36
SWIDTH 602 0
DWIDTH 11 0
BBX 9 19 1 -3
BITMAP
0c00
0c00
3f00
7f00
e100
e000
f000
f800
7e00
1f00
0f80
0380
0380
8780
ff00
7f00
0c00
0c00
0c00
ENDCHAR
STARTCHAR percent
ENCODING 37
SWIDTH 602 0
DWIDTH 11 0
BBX 13 14 0 0
BITMAP
7830
fc60
cce0
ccc0
cd80
ff80
7b00
06f0
0ff8
0d98
1998
3998
31f8
60f0
ENDCHAR
STARTCHAR ampersand
ENCODING 38
SWIDTH 602 0
DWIDTH 11 0
BBX 11 14 0 0
BITMAP
1e00
3f00
3f00
3f00
3f00
1e00
3ce0
7ce0
eee0
efc0
efc0
f780
7f80
3fe0
ENDCHAR
STARTCHAR quoteright
ENCODING 39
SWIDTH 602 0
DWIDTH 11 0
BBX 3 6 4 8
BITMAP
e0
e0
e0
60
e0
c0
ENDCHAR
STARTCHAR parenleft
ENCODING 40
SWIDTH 602 0
DWIDTH 11 0
BBX 8 18 3 -4
BITMAP
07
1f
3c
78
70
f0
e0
e0
e0
e0
e0
e0
70
70
38
1c
0f
03
ENDCHAR
STARTCHAR parenright
ENCODING 41
SWIDTH 602 0
DWIDTH 11 0
BBX 8 18 1 -4
BITMAP
c0
f0
38
1c
0e
0e
07
07
07
07
07
07
0e
0e
1c
3c
f0
c0
ENDCHAR
STARTCHAR asterisk
ENCODING 42
SWIDTH 602 0
DWIDTH 11 0
BBX 9 8 1 6
BITMAP
1c00
0800
c980
f780
0000
3600
7700
2200
ENDCHAR
STARTCHAR plus
ENCODING 43
SWIDTH 602 0
DWIDTH 11 0
BBX 10 10 1 0
BITMAP
0c00
0c00
0c00
0c00
ffc0
ffc0
0c00
0c00
0c00
0c00
ENDCHAR
STARTCHAR comma
ENCODING 44
SWIDTH 602 0
DWIDTH 11 0
BBX 3 8 4 -4
BITMAP
e0
e0
e0
e0
60
60
e0
c0
ENDCHAR
STARTCHAR minus
ENCODING 45
SWIDTH 602 0
DWIDTH 11 0
BBX 10 2 1 3
BITMAP
ffc0
ffc0
ENDCHAR
STARTCHAR period
ENCODING 46
SWIDTH 602 0
DWIDTH 11 0
BBX 3 3 4 0
BITMAP
e0
e0
e0
ENDCHAR
STARTCHAR slash
ENCODING 47
SWIDTH 602 0
DWIDTH 11 0
BBX 11 18 0 -4
BITMAP
00e0
00c0
01c0
0180
0180
0300
0300
0600
0600
0c00
0c00
1800
1800
3000
3000
6000
6000
c000
ENDCHAR
STARTCHAR zero
ENCODING 48
SWIDTH 602 0
DWIDTH 11 0
BBX 10 14 1 0
BITMAP
1e00
3f00
7380
6180
e1c0
e1c0
e1c0
e1c0
e1c0
e1c0
6180
7380
3f00
1e00
ENDCHAR
STARTCHAR one
ENCODING 49
SWIDTH 602 0
DWIDTH 11 0
BBX 9 14 2 0
BITMAP
fc00
fc00
1c00
1c00
1c00
1c00
1c00
1c00
1c00
1c00
1c00
1c00
ff80
ff80
ENDCHAR
STARTCHAR two
ENCODING 50
SWIDTH 602 0
DWIDTH 11 0
BBX 8 14 2 0
BITMAP
7c
fe
8f
07
07
07
0e
1c
38
30
60
e0
ff
ff
ENDCHAR
STARTCHAR three
ENCODING 51
SWIDTH 602 0
DWIDTH 11 0
BBX 8 14 2 0
BITMAP
7c
fe
8f
07
07
0e
78
7e
0f
07
07
8f
fe
fc
ENDCHAR
STARTCHAR four
ENCODING 52
SWIDTH 602 0
DWIDTH 11 0
BBX 10 14 1 0
BITMAP
0700
0f00
1f00
1f00
3700
7700
6700
ffc0
ffc0
ffc0
0700
0700
0700
0700
ENDCHAR
STARTCHAR five
ENCODING 53
SWIDTH 602 0
DWIDTH 11 0
BBX 7 14 3 0
BITMAP
fe
fe
c0
c0
c0
f0
fc
1c
0e
0e
0e
9e
fc
f8
ENDCHAR
STARTCHAR six
ENCODING 54
SWIDTH 602 0
DWIDTH 11 0
BBX 10 14 1 0
BITMAP
0f80
3f80
7880
7000
e000
ef00
ff80
f3c0
e1c0
e1c0
61c0
73c0
3f80
1f00
ENDCHAR
STARTCHAR seven
ENCODING 55
SWIDTH 602 0
DWIDTH 11 0
BBX 8 14 2 0
BITMAP
ff
ff
07
07
0e
0c
1c
18
38
30
30
70
70
70
ENDCHAR
STARTCHAR eight
ENCODING 56
SWIDTH 602 0
DWIDTH 11 0
BBX 9 14 1 0
BITMAP
1e00
3f00
7700
7700
7700
3e00
1e00
7f00
e780
e380
e380
f380
7f00
3e00
ENDCHAR
STARTCHAR nine
ENCODING 57
SWIDTH 602 0
DWIDTH 11 0
BBX 10 14 1 0
BITMAP
3e00
7f00
f380
e180
e1c0
e1c0
f3c0
7fc0
3dc0
01c0
0380
4780
7f00
7c00
ENDCHAR
STARTCHAR colon
ENCODING 58
SWIDTH 602 0
DWIDTH 11 0
BBX 3 10 4 0
BITMAP
e0
e0
e0
00
00
00
00
e0
e0
e0
ENDCHAR
STARTCHAR semicolon
ENCODING 59
SWIDTH 602 0
DWIDTH 11 0
BBX 3 14 4 -4
BITMAP
e0
e0
e0
00
00
00
00
e0
e0
e0
60
60
e0
c0
ENDCHAR
STARTCHAR less
ENCODING 60
SWIDTH 602 0
DWIDTH 11 0
BBX 10 10 1 0
BITMAP
0040
01c0
0780
1f00
fc00
7c00
1f00
07c0
01c0
0040
ENDCHAR
STARTCHAR equal
ENCODING 61
SWIDTH 602 0
DWIDTH 11 0
BBX 10 6 1 2
BITMAP
ffc0
ffc0
0000
0000
ffc0
ffc0
ENDCHAR
STARTCHAR greater
ENCODING 62
SWIDTH 602 0
DWIDTH 11 0
BBX 10 10 1 0
BITMAP
8000
e000
f800
3e00
0f80
0fc0
3e00
7800
e000
8000
ENDCHAR
STARTCHAR question
ENCODING 63
SWIDTH 602 0
DWIDTH 11 0
BBX 10 14 1 0
BITMAP
7f00
ff80
c3c0
c1c0
01c0
0380
0f00
1c00
3800
3800
0000
0000
3800
3800
ENDCHAR
STARTCHAR at
ENCODING 64
SWIDTH 602 0
DWIDTH 11 0
BBX 11 14 0 0
BITMAP
0f00
3f80
71c0
67c0
efc0
dcc0
d8c0
d9c0
d9c0
dfe0
eee0
7100
3f00
1e00
ENDCHAR
STARTCHAR A
ENCODING 65
SWIDTH 602 0
DWIDTH 11 0
BBX 11 14 0 0
BITMAP
0e00
0f00
0f00
1f00
1f00
1b80
3380
3380
33c0
7fc0
7fc0
61c0
c0e0
c0e0
ENDCHAR
STARTCHAR B
ENCODING 66
SWIDTH 602 0
DWIDTH 11 0
BBX 10 14 1 0
BITMAP
ff00
ff80
e380
e380
e380
e700
fe00
ff80
e3c0
e1c0
e1c0
e3c0
ff80
ff00
ENDCHAR
STARTCHAR C
ENCODING 67
SWIDTH 602 0
DWIDTH 11 0
BBX 11 14 0 0
BITMAP
0fe0
3fe0
7820
7000
e000
e000
e000
e000
e000
e000
7000
7820
3fe0
0fc0
ENDCHAR
STARTCHAR D
ENCODING 68
SWIDTH 602 0
DWIDTH 11 0
BBX 10 14 1 0
BITMAP
fe00
ff80
e380
e3c0
e1c0
e1c0
e1c0
e1c0
e1c0
e1c0
e380
e380
ff00
fe00
ENDCHAR
STARTCHAR E
ENCODING 69
SWIDTH 602 0
DWIDTH 11 0
BBX 9 14 2 0
BITMAP
ff80
ff80
e000
e000
e000
e000
ff00
ff00
e000
e000
e000
e000
ff80
ff80
ENDCHAR
STARTCHAR F
ENCODING 70
SWIDTH 602 0
DWIDTH 11 0
BBX 10 14 1 0
BITMAP
ffc0
ffc0
e000
e000
e000
e000
ff80
ff80
e000
e000
e000
e000
e000
e000
ENDCHAR
STARTCHAR G
ENCODING 71
SWIDTH 602 0
DWIDTH 11 0
BBX 11 14 0 0
BITMAP
0fe0
3fe0
7820
7000
e000
e000
e000
e0e0
e0e0
e0e0
70e0
78e0
3fe0
0fc0
ENDCHAR
STARTCHAR H
ENCODING 72
SWIDTH 602 0
DWIDTH 11 0
BBX 10 14 1 0
BITMAP
e1c0
e1c0
e1c0
e1c0
e1c0
e1c0
ffc0
ffc0
e1c0
e1c0
e1c0
e1c0
e1c0
e1c0
ENDCHAR
STARTCHAR I
ENCODING 73
SWIDTH 602 0
DWIDTH 11 0
BBX 9 14 1 0
BITMAP
ff80
ff80
1c00
1c00
1c00
1c00
1c00
1c00
1c00
1c00
1c00
1c00
ff80
ff80
ENDCHAR
STARTCHAR J
ENCODING 74
SWIDTH 602 0
DWIDTH 11 0
BBX 9 14 1 0
BITMAP
7f80
7f80
0380
0380
0380
0380
0380
0380
0380
0380
0380
8780
ff00
fe00
ENDCHAR
STARTCHAR K
ENCODING 75
SWIDTH 602 0
DWIDTH 11 0
BBX 10 14 1 0
BITMAP
e1c0
e380
e300
e600
ee00
ec00
fc00
fc00
fe00
ef00
e700
e780
e380
e3c0
ENDCHAR
STARTCHAR L
ENCODING 76
SWIDTH 602 0
DWIDTH 11 0
BBX 9 14 2 0
BITMAP
e000
e000
e000
e000
e000
e000
e000
e000
e000
e000
e000
e000
ff80
ff80
ENDCHAR
STARTCHAR M
ENCODING 77
SWIDTH 602 0
DWIDTH 11 0
BBX 10 14 1 0
BITMAP
e3c0
f3c0
f3c0
f3c0
f7c0
f7c0
f7c0
dfc0
dfc0
ddc0
ddc0
ddc0
ddc0
c1c0
ENDCHAR
STARTCHAR N
ENCODING 78
SWIDTH 602 0
DWIDTH 11 0
BBX 9 14 1 0
BITMAP
e180
f180
f180
f980
f980
fd80
dd80
dd80
cf80
cf80
c780
c780
c380
c380
ENDCHAR
STARTCHAR O
ENCODING 79
SWIDTH 602 0
DWIDTH 11 0
BBX 11 14 0 0
BITMAP
1f00
3f80
71c0
60c0
e0e0
e0e0
e0e0
e0e0
e0e0
e0e0
60c0
71c0
3f80
1f00
ENDCHAR
STARTCHAR P
ENCODING 80
SWIDTH 602 0
DWIDTH 11 0
BBX 10 14 1 0
BITMAP
ff00
ff80
e1c0
e1c0
e1c0
e1c0
e3c0
ff80
ff00
e000
e000
e000
e000
e000
ENDCHAR
STARTCHAR Q
ENCODING 81
SWIDTH 602 0
DWIDTH 11 0
BBX 12 17 0 -3
BITMAP
1f00
3f80
71c0
60c0
e0e0
e0e0
e0e0
e0e0
e0e0
e0e0
60e0
71c0
3f80
1f00
03f0
00e0
0040
ENDCHAR
STARTCHAR R
ENCODING 82
SWIDTH 602 0
DWIDTH 11 0
BBX 10 14 1 0
BITMAP
fe00
ff00
e380
e380
e380
e380
e700
fc00
fe00
ef00
e700
e780
e380
e1c0
ENDCHAR
STARTCHAR S
ENCODING 83
SWIDTH 602 0
DWIDTH 11 0
BBX 10 14 1 0
BITMAP
3f80
7f80
e080
e000
f000
fc00
3f00
1f80
07c0
01c0
01c0
83c0
ff80
fe00
ENDCHAR
STARTCHAR T
ENCODING 84
SWIDTH 602 0
DWIDTH 11 0
BBX 11 14 0 0
BITMAP
ffe0
ffe0
0e00
0e00
0e00
0e00
0e00
0e00
0e00
0e00
0e00
0e00
0e00
0e00
ENDCHAR
STARTCHAR U
ENCODING 85
SWIDTH 602 0
DWIDTH 11 0
BBX 9 14 1 0
BITMAP
e380
e380
e380
e380
e380
e380
e380
e380
e380
e380
e380
e380
7f00
3e00
ENDCHAR
STARTCHAR V
ENCODING 86
SWIDTH 602 0
DWIDTH 11 0
BBX 11 14 0 0
BITMAP
e060
e0e0
70c0
70c0
70c0
7980
3980
3980
3b00
1f00
1f00
1f00
1e00
0e00
ENDCHAR
STARTCHAR W
ENCODING 87
SWIDTH 602 0
DWIDTH 11 0
BBX 11 14 0 0
BITMAP
e060
ee60
ee60
ee60
6f40
7fc0
7fc0
7fc0
7fc0
7fc0
7bc0
7b80
3380
3380
ENDCHAR
STARTCHAR X
ENCODING 88
SWIDTH 602 0
DWIDTH 11 0
BBX 11 14 0 0
BITMAP
f0e0
70c0
7980
3b80
3f00
1f00
0e00
0f00
1f00
1f80
3380
73c0
61c0
e1e0
ENDCHAR
STARTCHAR Y
ENCODING 89
SWIDTH 602 0
DWIDTH 11 0
BBX 11 14 0 0
BITMAP
e060
70c0
70c0
3980
3980
1f00
1f00
0e00
0e00
0e00
0e00
0e00
0e00
0e00
ENDCHAR
STARTCHAR Z
ENCODING 90
SWIDTH 602 0
DWIDTH 11 0
BBX 10 14 1 0
BITMAP
ffc0
ffc0
03c0
0380
0700
0f00
0e00
1c00
3c00
3800
7800
f000
ffc0
ffc0
ENDCHAR
STARTCHAR bracketleft
ENCODING 91
SWIDTH 602 0
DWIDTH 11 0
BBX 8 18 3 -4
BITMAP
ff
ff
e0
e0
e0
e0
e0
e0
e0
e0
e0
e0
e0
e0
e0
e0
ff
ff
ENDCHAR
STARTCHAR backslash
ENCODING 92
SWIDTH 602 0
DWIDTH 11 0
BBX 11 18 0 -4
BITMAP
c000
6000
6000
3000
3000
1800
1800
0c00
0c00
0600
0600
0300
0300
0180
0180
00c0
00c0
0060
ENDCHAR
STARTCHAR bracketright
ENCODING 93
SWIDTH 602 0
DWIDTH 11 0
BBX 8 18 0 -4
BITMAP
ff
ff
07
07
07
07
07
07
07
07
07
07
07
07
07
07
ff
ff
ENDCHAR
STARTCHAR asciicircum
ENCODING 94
SWIDTH 602 0
DWIDTH 11 0
BBX 10 12 1 2
BITMAP
0400
0c00
0c00
0c00
1e00
1e00
3300
3300
3300
6180
6180
c0c0
ENDCHAR
STARTCHAR underscore
ENCODING 95
SWIDTH 602 0
DWIDTH 11 0
BBX 11 2 0 -3
BITMAP
ffe0
ffe0
ENDCHAR
STARTCHAR quoteleft
ENCODING 96
SWIDTH 602 0
DWIDTH 11 0
BBX 3 6 4 8
BITMAP
60
e0
c0
e0
e0
e0
ENDCHAR
STARTCHAR a
ENCODING 97
SWIDTH 602 0
DWIDTH 11 0
BBX 10 10 1 0
BITMAP
3f00
7f80
4780
0380
3f80
ff80
e380
e380
ffc0
79c0
ENDCHAR
STARTCHAR b
ENCODING 98
SWIDTH 602 0
DWIDTH 11 0
BBX 10 14 1 0
BITMAP
e000
e000
e000
e000
ef00
ef80
ffc0
f3c0
e1c0
e1c0
e1c0
e380
ff80
ff00
ENDCHAR
STARTCHAR c
ENCODING 99
SWIDTH 602 0
DWIDTH 11 0
BBX 10 10 1 0
BITMAP
1fc0
7fc0
7040
e000
e000
e000
e000
7800
3fc0
1fc0
ENDCHAR
STARTCHAR d
ENCODING 100
SWIDTH 602 0
DWIDTH 11 0
BBX 10 14 1 0
BITMAP
01c0
01c0
01c0
01c0
3dc0
7fc0
71c0
e1c0
e1c0
e1c0
f3c0
ffc0
7fc0
3dc0
ENDCHAR
STARTCHAR e
ENCODING 101
SWIDTH 602 0
DWIDTH 11 0
BBX 10 10 1 0
BITMAP
1f00
7f80
7180
e1c0
ffc0
ffc0
e000
7040
7fc0
1f80
ENDCHAR
STARTCHAR f
ENCODING 102
SWIDTH 602 0
DWIDTH 11 0
BBX 10 14 2 0
BITMAP
0fc0
3fc0
3840
3800
ff80
ff80
3800
3800
3800
3800
3800
3800
3800
3800
ENDCHAR
STARTCHAR g
ENCODING 103
SWIDTH 602 0
DWIDTH 11 0
BBX 10 14 1 -4
BITMAP
3cc0
7fc0
f3c0
e1c0
e1c0
e1c0
f3c0
ffc0
7fc0
3dc0
01c0
4380
7f80
3e00
ENDCHAR
STARTCHAR h
ENCODING 104
SWIDTH 602 0
DWIDTH 11 0
BBX 9 14 1 0
BITMAP
e000
e000
e000
e000
ef00
ff80
ff80
f380
e380
e380
e380
e380
e380
e380
ENDCHAR
STARTCHAR i
ENCODING 105
SWIDTH 602 0
DWIDTH 11 0
BBX 7 14 2 0
BITMAP
0e
0e
0e
00
fe
fe
0e
0e
0e
0e
0e
0e
0e
0e
ENDCHAR
STARTCHAR j
ENCODING 106
SWIDTH 602 0
DWIDTH 11 0
BBX 8 18 1 -4
BITMAP
07
07
07
00
7f
7f
07
07
07
07
07
07
07
07
07
87
fe
fc
ENDCHAR
STARTCHAR k
ENCODING 107
SWIDTH 602 0
DWIDTH 11 0
BBX 10 14 1 0
BITMAP
e000
e000
e000
e000
e380
e700
e600
ec00
fc00
ee00
ef00
e700
e380
e3c0
ENDCHAR
STARTCHAR l
ENCODING 108
SWIDTH 602 0
DWIDTH 11 0
BBX 7 14 1 0
BITMAP
fe
fe
0e
0e
0e
0e
0e
0e
0e
0e
0e
0e
0e
0e
ENDCHAR
STARTCHAR m
ENCODING 109
SWIDTH 602 0
DWIDTH 11 0
BBX 11 10 0 0
BITMAP
ece0
ffe0
ffe0
eee0
eee0
eee0
eee0
eee0
eee0
eee0
ENDCHAR
STARTCHAR n
ENCODING 110
SWIDTH 602 0
DWIDTH 11 0
BBX 9 10 1 0
BITMAP
ef00
ff80
ff80
f380
e380
e380
e380
e380
e380
e380
ENDCHAR
STARTCHAR o
ENCODING 111
SWIDTH 602 0
DWIDTH 11 0
BBX 11 10 0 0
BITMAP
1f00
7fc0
71c0
e0e0
e0e0
e0e0
e0e0
71c0
7fc0
1f00
ENDCHAR
STARTCHAR p
ENCODING 112
SWIDTH 602 0
DWIDTH 11 0
BBX 10 14 1 -4
BITMAP
ef00
ff80
ffc0
f3c0
e1c0
e1c0
e1c0
e380
ff80
ef00
e000
e000
e000
e000
ENDCHAR
STARTCHAR q
ENCODING 113
SWIDTH 602 0
DWIDTH 11 0
BBX 10 14 1 -4
BITMAP
3fc0
7fc0
71c0
e1c0
e1c0
e1c0
f3c0
ffc0
7dc0
3dc0
01c0
01c0
01c0
01c0
ENDCHAR
STARTCHAR r
ENCODING 114
SWIDTH 602 0
DWIDTH 11 0
BBX 9 10 2 0
BITMAP
e780
ff80
ff80
f180
e000
e000
e000
e000
e000
e000
ENDCHAR
STARTCHAR s
ENCODING 115
SWIDTH 602 0
DWIDTH 11 0
BBX 9 10 1 0
BITMAP
3f00
7f00
e100
f800
ff00
3f80
0780
8380
ff00
7e00
ENDCHAR
STARTCHAR t
ENCODING 116
SWIDTH 602 0
DWIDTH 11 0
BBX 9 13 1 0
BITMAP
3800
3800
3800
ff80
ff80
3800
3800
3800
3800
3800
3800
1f80
0f80
ENDCHAR
STARTCHAR u
ENCODING 117
SWIDTH 602 0
DWIDTH 11 0
BBX 9 10 1 0
BITMAP
e380
e380
e380
e380
e380
e380
e780
ff80
ff80
7b80
ENDCHAR
STARTCHAR v
ENCODING 118
SWIDTH 602 0
DWIDTH 11 0
BBX 11 10 0 0
BITMAP
e060
f0c0
70c0
79c0
3980
3980
1f00
1f00
1f00
0e00
ENDCHAR
STARTCHAR w
ENCODING 119
SWIDTH 602 0
DWIDTH 11 0
BBX 11 10 0 0
BITMAP
e060
ee60
ee60
6f40
7fc0
7fc0
7bc0
7bc0
79c0
3180
ENDCHAR
STARTCHAR x
ENCODING 120
SWIDTH 602 0
DWIDTH 11 0
BBX 10 10 1 0
BITMAP
f1c0
7b80
3b00
3e00
1e00
1e00
3f00
3780
6380
e3c0
ENDCHAR
STARTCHAR y
ENCODING 121
SWIDTH 602 0
DWIDTH 11 0
BBX 11 14 0 -4
BITMAP
e060
70c0
70c0
3980
3980
3f80
1f00
1f00
0e00
0e00
0c00
0c00
7800
7000
ENDCHAR
STARTCHAR z
ENCODING 122
SWIDTH 602 0
DWIDTH 11 0
BBX 9 10 1 0
BITMAP
ff80
ff80
0780
0f00
1e00
3c00
7800
f000
ff80
ff80
ENDCHAR
STARTCHAR braceleft
ENCODING 123
SWIDTH 602 0
DWIDTH 11 0
BBX 8 18 2 -4
BITMAP
0f
1f
1c
1c
1c
1c
1c
1c
f0
f0
1c
1c
1c
1c
1c
1c
1f
0f
ENDCHAR
STARTCHAR bar
ENCODING 124
SWIDTH 602 0
DWIDTH 11 0
BBX 2 18 5 -4
BITMAP
c0
c0
c0
c0
c0
c0
c0
c0
c0
c0
c0
c0
c0
c0
c0
c0
c0
c0
ENDCHAR
STARTCHAR braceright
ENCODING 125
SWIDTH 602 0
DWIDTH 11 0
BBX 8 18 1 -4
BITMAP
f8
fc
1c
1c
3c
38
38
38
0f
0f
38
38
38
38
1c
1c
fc
f8
ENDCHAR
STARTCHAR asciitilde
ENCODING 126
SWIDTH 602 0
DWIDTH 11 0
BBX 10 4 1 3
BITMAP
70c0
7cc0
cf80
c380
ENDCHAR
STARTCHAR exclamdown
ENCODING 161
SWIDTH 602 0
DWIDTH 11 0
BBX 3 14 4 -4
BITMAP
e0
e0
e0
00
c0
c0
c0
c0
e0
e0
e0
e0
e0
e0
ENDCHAR
STARTCHAR cent
ENCODING 162
SWIDTH 602 0
DWIDTH 11 0
BBX 8 14 2 0
BITMAP
0c
0c
3f
7f
70
e0
e0
e0
e0
70
7f
1f
0c
0c
ENDCHAR
STARTCHAR sterling
ENCODING 163
SWIDTH 602 0
DWIDTH 11 0
BBX 8 14 2 0
BITMAP
1f
3f
38
38
38
38
fc
fc
38
38
38
30
ff
ff
ENDCHAR
STARTCHAR currency
ENCODING 164
SWIDTH 602 0
DWIDTH 11 0
BBX 11 12 0 1
BITMAP
4040
ffe0
7fc0
7180
60c0
60c0
60c0
60c0
7180
7fc0
ffe0
4040
ENDCHAR
STARTCHAR yen
ENCODING 165
SWIDTH 602 0
DWIDTH 11 0
BBX 11 14 0 0
BITMAP
f060
70c0
7980
3f80
1f00
1e00
3f80
3f80
0e00
3f80
3f80
0e00
0e00
0e00
ENDCHAR
STARTCHAR brokenbar
ENCODING 166
SWIDTH 602 0
DWIDTH 11 0
BBX 2 18 5 -4
BITMAP
c0
c0
c0
c0
c0
c0
c0
00
00
00
00
c0
c0
c0
c0
c0
c0
c0
ENDCHAR
STARTCHAR section
ENCODING 167
SWIDTH 602 0
DWIDTH 11 0
BBX 8 18 2 -4
BITMAP
3e
7e
e2
e0
f0
78
7e
c7
c3
e3
fb
7e
3e
0f
07
87
fe
fc
ENDCHAR
STARTCHAR dieresis
ENCODING 168
SWIDTH 602 0
DWIDTH 11 0
BBX 5 2 3 12
BITMAP
d8
d8
ENDCHAR
STARTCHAR copyright
ENCODING 169
SWIDTH 602 0
DWIDTH 11 0
BBX 10 14 1 0
BITMAP
1e00
3f00
6180
dcc0
dec0
f2c0
f0c0
f0c0
f2c0
dec0
dcc0
6180
3f00
1e00
ENDCHAR
STARTCHAR ordfeminine
ENCODING 170
SWIDTH 602 0
DWIDTH 11 0
BBX 9 8 1 6
BITMAP
7e00
ff00
8300
7f00
ff00
c300
ff80
7b80
ENDCHAR
STARTCHAR guillemotleft
ENCODING 171
SWIDTH 602 0
DWIDTH 11 0
BBX 10 8 1 1
BITMAP
0880
19c0
3380
7700
f700
7380
39c0
1880
ENDCHAR
STARTCHAR logicalnot
ENCODING 172
SWIDTH 602 0
DWIDTH 11 0
BBX 10 4 1 2
BITMAP
ffc0
ffc0
00c0
00c0
ENDCHAR
STARTCHAR hyphen
ENCODING 173
SWIDTH 602 0
DWIDTH 11 0
BBX 8 2 2 5
BITMAP
ff
ff
ENDCHAR
STARTCHAR registered
ENCODING 174
SWIDTH 602 0
DWIDTH 11 0
BBX 10 10 1 4
BITMAP
1e00
7f00
6180
dfc0
dbc0
dec0
dec0
7b80
7f00
1e00
ENDCHAR
STARTCHAR macron
ENCODING 175
SWIDTH 602 0
DWIDTH 11 0
BBX 5 2 3 12
BITMAP
f8
f8
ENDCHAR
STARTCHAR degree
ENCODING 176
SWIDTH 602 0
DWIDTH 11 0
BBX 3 4 4 10
BITMAP
e0
a0
a0
40
ENDCHAR
STARTCHAR plusminus
ENCODING 177
SWIDTH 602 0
DWIDTH 11 0
BBX 10 10 1 0
BITMAP
0c00
0c00
ffc0
ffc0
0c00
0c00
0c00
0000
ffc0
ffc0
ENDCHAR
STARTCHAR twosuperior
ENCODING 178
SWIDTH 602 0
DWIDTH 11 0
BBX 4 7 -2 7
BITMAP
e0
10
10
20
60
c0
f0
ENDCHAR
STARTCHAR threesuperior
ENCODING 179
SWIDTH 602 0
DWIDTH 11 0
BBX 3 7 -2 7
BITMAP
e0
20
20
c0
20
20
c0
ENDCHAR
STARTCHAR acute
ENCODING 180
SWIDTH 602 0
DWIDTH 11 0
BBX 5 3 3 11
BITMAP
38
70
e0
ENDCHAR
STARTCHAR mu
ENCODING 181
SWIDTH 602 0
DWIDTH 11 0
BBX 9 14 1 -4
BITMAP
e380
e380
e380
e380
e380
e380
e780
ff80
ff80
fb80
e000
e000
e000
e000
ENDCHAR
STARTCHAR paragraph
ENCODING 182
SWIDTH 602 0
DWIDTH 11 0
BBX 7 18 2 -4
BITMAP
7e
fe
fe
fe
fe
fe
7e
1e
1e
1e
1e
1e
1e
1e
1e
1e
1e
1e
ENDCHAR
STARTCHAR periodcentered
ENCODING 183
SWIDTH 602 0
DWIDTH 11 0
BBX 3 3 4 3
BITMAP
e0
e0
e0
ENDCHAR
STARTCHAR cedilla
ENCODING 184
SWIDTH 602 0
DWIDTH 11 0
BBX 4 4 4 -4
BITMAP
60
f0
30
e0
ENDCHAR
STARTCHAR onesuperior
ENCODING 185
SWIDTH 602 0
DWIDTH 11 0
BBX 3 7 -2 7
BITMAP
c0
40
40
40
40
40
e0
ENDCHAR
STARTCHAR ordmasculine
ENCODING 186
SWIDTH 602 0
DWIDTH 11 0
BBX 8 8 2 6
BITMAP
3c
7e
e7
c3
c3
e7
7e
3c
ENDCHAR
STARTCHAR guillemotright
ENCODING 187
SWIDTH 602 0
DWIDTH 11 0
BBX 10 8 1 1
BITMAP
4600
e700
7380
3bc0
3b80
7300
e600
4400
ENDCHAR
STARTCHAR onequarter
ENCODING 188
SWIDTH 602 0
DWIDTH 11 0
BBX 11 14 2 0
BITMAP
c060
40c0
41c0
4180
4300
4700
e600
0cc0
1cc0
1940
3240
73e0
6040
c040
ENDCHAR
STARTCHAR onehalf
ENCODING 189
SWIDTH 602 0
DWIDTH 11 0
BBX 11 14 2 0
BITMAP
c060
40c0
41c0
4180
4300
4700
e600
0dc0
1c20
1820
3040
70c0
6180
c1e0
ENDCHAR
STARTCHAR threequarters
ENCODING 190
SWIDTH 602 0
DWIDTH 11 0
BBX 11 14 2 0
BITMAP
e060
20c0
21c0
c180
2300
2700
c600
0cc0
1cc0
1940
3240
73e0
6040
c040
ENDCHAR
STARTCHAR questiondown
ENCODING 191
SWIDTH 602 0
DWIDTH 11 0
BBX 10 14 0 -4
BITMAP
0700
0700
0700
0000
0700
0700
0e00
3c00
7000
e000
e0c0
f0c0
7fc0
3f80
ENDCHAR
STARTCHAR Agrave
ENCODING 192
SWIDTH 602 0
DWIDTH 11 0
BBX 11 18 0 0
BITMAP
1c00
0e00
0700
0000
0e00
0f00
0f00
1f00
1f00
1b80
3380
3380
33c0
7fc0
7fc0
61c0
c0e0
c0e0
ENDCHAR
STARTCHAR Aacute
ENCODING 193
SWIDTH 602 0
DWIDTH 11 0
BBX 11 18 0 0
BITMAP
0700
0e00
1c00
0000
0e00
0f00
0f00
1f00
1f00
1b80
3380
3380
33c0
7fc0
7fc0
61c0
c0e0
c0e0
ENDCHAR
STARTCHAR Acircumflex
ENCODING 194
SWIDTH 602 0
DWIDTH 11 0
BBX 11 18 0 0
BITMAP
0c00
1e00
3300
0000
0e00
0f00
0f00
1f00
1f00
1b80
3380
3380
33c0
7fc0
7fc0
61c0
c0e0
c0e0
ENDCHAR
STARTCHAR Atilde
ENCODING 195
SWIDTH 602 0
DWIDTH 11 0
BBX 11 18 0 0
BITMAP
0d80
1f80
1b00
0000
0e00
0f00
0f00
1f00
1f00
1b80
3380
3380
33c0
7fc0
7fc0
61c0
c0e0
c0e0
ENDCHAR
STARTCHAR Adieresis
ENCODING 196
SWIDTH 602 0
DWIDTH 11 0
BBX 11 17 0 0
BITMAP
1b00
1b00
0000
0e00
0f00
0f00
1f00
1f00
1b80
3380
3380
33c0
7fc0
7fc0
61c0
c0e0
c0e0
ENDCHAR
STARTCHAR Aring
ENCODING 197
SWIDTH 602 0
DWIDTH 11 0
BBX 11 18 0 0
BITMAP
0e00
0a00
0e00
0000
0e00
0f00
0f00
1f00
1f00
1b80
3380
3380
33c0
7fc0
7fc0
61c0
c0e0
c0e0
ENDCHAR
STARTCHAR AE
ENCODING 198
SWIDTH 602 0
DWIDTH 11 0
BBX 12 14 0 0
BITMAP
07f0
07f0
0780
0f80
0f80
1f80
1bf0
3bf0
3380
3f80
7f80
6380
e3f0
c3f0
ENDCHAR
STARTCHAR Ccedilla
ENCODING 199
SWIDTH 602 0
DWIDTH 11 0
BBX 11 18 0 -4
BITMAP
0fe0
3fe0
7820
7000
e000
e000
e000
e000
e000
e000
7000
7820
3fe0
0fc0
0400
0f00
0300
0e00
ENDCHAR
STARTCHAR Egrave
ENCODING 200
SWIDTH 602 0
DWIDTH 11 0
BBX 9 18 2 0
BITMAP
3800
1c00
0e00
0000
ff80
ff80
e000
e000
e000
e000
ff00
ff00
e000
e000
e000
e000
ff80
ff80
ENDCHAR
STARTCHAR Eacute
ENCODING 201
SWIDTH 602 0
DWIDTH 11 0
BBX 9 18 2 0
BITMAP
0e00
1c00
3800
0000
ff80
ff80
e000
e000
e000
e000
ff00
ff00
e000
e000
e000
e000
ff80
ff80
ENDCHAR
STARTCHAR Ecircumflex
ENCODING 202
SWIDTH 602 0
DWIDTH 11 0
BBX 9 18 2 0
BITMAP
0c00
1e00
3300
0000
ff80
ff80
e000
e000
e000
e000
ff00
ff00
e000
e000
e000
e000
ff80
ff80
ENDCHAR
STARTCHAR Edieresis
ENCODING 203
SWIDTH 602 0
DWIDTH 11 0
BBX 9 17 2 0
BITMAP
3600
3600
0000
ff80
ff80
e000
e000
e000
e000
ff00
ff00
e000
e000
e000
e000
ff80
ff80
ENDCHAR
STARTCHAR Igrave
ENCODING 204
SWIDTH 602 0
DWIDTH 11 0
BBX 9 18 1 0
BITMAP
3800
1c00
0e00
0000
ff80
ff80
1c00
1c00
1c00
1c00
1c00
1c00
1c00
1c00
1c00
1c00
ff80
ff80
ENDCHAR
STARTCHAR Iacute
ENCODING 205
SWIDTH 602 0
DWIDTH 11 0
BBX 9 18 1 0
BITMAP
0e00
1c00
3800
0000
ff80
ff80
1c00
1c00
1c00
1c00
1c00
1c00
1c00
1c00
1c00
1c00
ff80
ff80
ENDCHAR
STARTCHAR Icircumflex
ENCODING 206
SWIDTH 602 0
DWIDTH 11 0
BBX 9 18 1 0
BITMAP
1800
3c00
6600
0000
ff80
ff80
1c00
1c00
1c00
1c00
1c00
1c00
1c00
1c00
1c00
1c00
ff80
ff80
ENDCHAR
STARTCHAR Idieresis
ENCODING 207
SWIDTH 602 0
DWIDTH 11 0
BBX 9 17 1 0
BITMAP
3600
3600
0000
ff80
ff80
1c00
1c00
1c00
1c00
1c00
1c00
1c00
1c00
1c00
1c00
ff80
ff80
ENDCHAR
STARTCHAR Eth
ENCODING 208
SWIDTH 602 0
DWIDTH 11 0
BBX 11 14 0 0
BITMAP
7f00
7fc0
71c0
71e0
70e0
70e0
fce0
fce0
70e0
70e0
71c0
71c0
7f80
7f00
ENDCHAR
STARTCHAR Ntilde
ENCODING 209
SWIDTH 602 0
DWIDTH 11 0
BBX 9 18 1 0
BITMAP
1b00
3f00
3600
0000
e180
f180
f180
f980
f980
fd80
dd80
dd80
cf80
cf80
c780
c780
c380
c380
ENDCHAR
STARTCHAR Ograve
ENCODING 210
SWIDTH 602 0
DWIDTH 11 0
BBX 11 18 0 0
BITMAP
1c00
0e00
0700
0000
1f00
3f80
71c0
60c0
e0e0
e0e0
e0e0
e0e0
e0e0
e0e0
60c0
71c0
3f80
1f00
ENDCHAR
STARTCHAR Oacute
ENCODING 211
SWIDTH 602 0
DWIDTH 11 0
BBX 11 18 0 0
BITMAP
0700
0e00
1c00
0000
1f00
3f80
71c0
60c0
e0e0
e0e0
e0e0
e0e0
e0e0
e0e0
60c0
71c0
3f80
1f00
ENDCHAR
STARTCHAR Ocircumflex
ENCODING 212
SWIDTH 602 0
DWIDTH 11 0
BBX 11 18 0 0
BITMAP
0c00
1e00
3300
0000
1f00
3f80
71c0
60c0
e0e0
e0e0
e0e0
e0e0
e0e0
e0e0
60c0
71c0
3f80
1f00
ENDCHAR
STARTCHAR Otilde
ENCODING 213
SWIDTH 602 0
DWIDTH 11 0
BBX 11 18 0 0
BITMAP
1b00
3f00
3600
0000
1f00
3f80
71c0
60c0
e0e0
e0e0
e0e0
e0e0
e0e0
e0e0
60c0
71c0
3f80
1f00
ENDCHAR
STARTCHAR Odieresis
ENCODING 214
SWIDTH 602 0
DWIDTH 11 0
BBX 11 17 0 0
BITMAP
1b00
1b00
0000
1f00
3f80
71c0
60c0
e0e0
e0e0
e0e0
e0e0
e0e0
e0e0
60c0
71c0
3f80
1f00
ENDCHAR
STARTCHAR multiply
ENCODING 215
SWIDTH 602 0
DWIDTH 11 0
BBX 10 10 1 0
BITMAP
4080
e1c0
7380
3f00
1e00
1e00
3f00
7380
e1c0
4080
ENDCHAR
STARTCHAR Oslash
ENCODING 216
SWIDTH 602 0
DWIDTH 11 0
BBX 11 14 0 0
BITMAP
1f60
3fc0
71c0
61c0
e3e0
e7e0
e6e0
ece0
fce0
f8e0
70c0
71c0
7f80
df00
ENDCHAR
STARTCHAR Ugrave
ENCODING 217
SWIDTH 602 0
DWIDTH 11 0
BBX 9 18 1 0
BITMAP
3800
1c00
0e00
0000
e380
e380
e380
e380
e380
e380
e380
e380
e380
e380
e380
e380
7f00
3e00
ENDCHAR
STARTCHAR Uacute
ENCODING 218
SWIDTH 602 0
DWIDTH 11 0
BBX 9 18 1 0
BITMAP
0e00
1c00
3800
0000
e380
e380
e380
e380
e380
e380
e380
e380
e380
e380
e380
e380
7f00
3e00
ENDCHAR
STARTCHAR Ucircumflex
ENCODING 219
SWIDTH 602 0
DWIDTH 11 0
BBX 9 18 1 0
BITMAP
1800
3c00
6600
0000
e380
e380
e380
e380
e380
e380
e380
e380
e380
e380
e380
e380
7f00
3e00
ENDCHAR
STARTCHAR Udieresis
ENCODING 220
SWIDTH 602 0
DWIDTH 11 0
BBX 9 17 1 0
BITMAP
3600
3600
0000
e380
e380
e380
e380
e380
e380
e380
e380
e380
e380
e380
e380
7f00
3e00
ENDCHAR
STARTCHAR Yacute
ENCODING 221
SWIDTH 602 0
DWIDTH 11 0
BBX 11 18 0 0
BITMAP
0700
0e00
1c00
0000
e060
70c0
70c0
3980
3980
1f00
1f00
0e00
0e00
0e00
0e00
0e00
0e00
0e00
ENDCHAR
STARTCHAR Thorn
ENCODING 222
SWIDTH 602 0
DWIDTH 11 0
BBX 10 14 1 0
BITMAP
e000
e000
ff00
ff80
e1c0
e1c0
e1c0
e1c0
e3c0
ff80
ff00
e000
e000
e000
ENDCHAR
STARTCHAR germandbls
ENCODING 223
SWIDTH 602 0
DWIDTH 11 0
BBX 10 14 1 0
BITMAP
3e00
7f00
e700
e700
e600
ee00
ee00
ef00
e780
e3c0
e1c0
e9c0
efc0
ef80
ENDCHAR
STARTCHAR agrave
ENCODING 224
SWIDTH 602 0
DWIDTH 11 0
BBX 10 14 1 0
BITMAP
3800
1c00
0e00
0000
3f00
7f80
4780
0380
3f80
ff80
e380
e380
ffc0
79c0
ENDCHAR
STARTCHAR aacute
ENCODING 225
SWIDTH 602 0
DWIDTH 11 0
BBX 10 14 1 0
BITMAP
0e00
1c00
3800
0000
3f00
7f80
4780
0380
3f80
ff80
e380
e380
ffc0
79c0
ENDCHAR
STARTCHAR acircumflex
ENCODING 226
SWIDTH 602 0
DWIDTH 11 0
BBX 10 14 1 0
BITMAP
0c00
1e00
3300
0000
3f00
7f80
4780
0380
3f80
ff80
e380
e380
ffc0
79c0
ENDCHAR
STARTCHAR atilde
ENCODING 227
SWIDTH 602 0
DWIDTH 11 0
BBX 10 14 1 0
BITMAP
1b00
3f00
3600
0000
3f00
7f80
4780
0380
3f80
ff80
e380
e380
ffc0
79c0
ENDCHAR
STARTCHAR adieresis
ENCODING 228
SWIDTH 602 0
DWIDTH 11 0
BBX 10 13 1 0
BITMAP
3600
3600
0000
3f00
7f80
4780
0380
3f80
ff80
e380
e380
ffc0
79c0
ENDCHAR
STARTCHAR aring
ENCODING 229
SWIDTH 602 0
DWIDTH 11 0
BBX 10 14 1 0
BITMAP
1c00
1400
1c00
0000
3f00
7f80
4780
0380
3f80
ff80
e380
e380
ffc0
79c0
ENDCHAR
STARTCHAR ae
ENCODING 230
SWIDTH 602 0
DWIDTH 11 0
BBX 10 10 1 0
BITMAP
7b80
7f80
4dc0
0dc0
7fc0
ffc0
ec00
ec40
ffc0
7380
ENDCHAR
STARTCHAR ccedilla
ENCODING 231
SWIDTH 602 0
DWIDTH 11 0
BBX 10 14 1 -4
BITMAP
1fc0
7fc0
7040
e000
e000
e000
e000
7800
3fc0
1fc0
0800
1e00
0600
1c00
ENDCHAR
STARTCHAR egrave
ENCODING 232
SWIDTH 602 0
DWIDTH 11 0
BBX 10 14 1 0
BITMAP
3800
1c00
0e00
0000
1f00
7f80
7180
e1c0
ffc0
ffc0
e000
7040
7fc0
1f80
ENDCHAR
STARTCHAR eacute
ENCODING 233
SWIDTH 602 0
DWIDTH 11 0
BBX 10 14 1 0
BITMAP
0e00
1c00
3800
0000
1f00
7f80
7180
e1c0
ffc0
ffc0
e000
7040
7fc0
1f80
ENDCHAR
STARTCHAR ecircumflex
ENCODING 234
SWIDTH 602 0
DWIDTH 11 0
BBX 10 14 1 0
BITMAP
0c00
1e00
3300
0000
1f00
7f80
7180
e1c0
ffc0
ffc0
e000
7040
7fc0
1f80
ENDCHAR
STARTCHAR edieresis
ENCODING 235
SWIDTH 602 0
DWIDTH 11 0
BBX 10 13 1 0
BITMAP
3600
3600
0000
1f00
7f80
7180
e1c0
ffc0
ffc0
e000
7040
7fc0
1f80
ENDCHAR
STARTCHAR igrave
ENCODING 236
SWIDTH 602 0
DWIDTH 11 0
BBX 7 14 2 0
BITMAP
38
1c
0e
00
fe
fe
0e
0e
0e
0e
0e
0e
0e
0e
ENDCHAR
STARTCHAR iacute
ENCODING 237
SWIDTH 602 0
DWIDTH 11 0
BBX 7 14 2 0
BITMAP
0e
1c
38
00
fe
fe
0e
0e
0e
0e
0e
0e
0e
0e
ENDCHAR
STARTCHAR icircumflex
ENCODING 238
SWIDTH 602 0
DWIDTH 11 0
BBX 7 14 2 0
BITMAP
18
3c
66
00
fe
fe
0e
0e
0e
0e
0e
0e
0e
0e
ENDCHAR
STARTCHAR idieresis
ENCODING 239
SWIDTH 602 0
DWIDTH 11 0
BBX 7 13 2 0
BITMAP
36
36
00
fe
fe
0e
0e
0e
0e
0e
0e
0e
0e
ENDCHAR
STARTCHAR eth
ENCODING 240
SWIDTH 602 0
DWIDTH 11 0
BBX 10 14 1 0
BITMAP
ff00
9e00
1e00
1700
3f80
7f80
73c0
e1c0
e1c0
e1c0
e1c0
7380
7f80
1e00
ENDCHAR
STARTCHAR ntilde
ENCODING 241
SWIDTH 602 0
DWIDTH 11 0
BBX 9 14 1 0
BITMAP
3600
7e00
6c00
0000
ef00
ff80
ff80
f380
e380
e380
e380
e380
e380
e380
ENDCHAR
STARTCHAR ograve
ENCODING 242
SWIDTH 602 0
DWIDTH 11 0
BBX 11 14 0 0
BITMAP
1c00
0e00
0700
0000
1f00
7fc0
71c0
e0e0
e0e0
e0e0
e0e0
71c0
7fc0
1f00
ENDCHAR
STARTCHAR oacute
ENCODING 243
SWIDTH 602 0
DWIDTH 11 0
BBX 11 14 0 0
BITMAP
0700
0e00
1c00
0000
1f00
7fc0
71c0
e0e0
e0e0
e0e0
e0e0
71c0
7fc0
1f00
ENDCHAR
STARTCHAR ocircumflex
ENCODING 244
SWIDTH 602 0
DWIDTH 11 0
BBX 11 14 0 0
BITMAP
0c00
1e00
3300
0000
1f00
7fc0
71c0
e0e0
e0e0
e0e0
e0e0
71c0
7fc0
1f00
ENDCHAR
STARTCHAR otilde
ENCODING 245
SWIDTH 602 0
DWIDTH 11 0
BBX 11 14 0 0
BITMAP
0d80
1f80
1b00
0000
1f00
7fc0
71c0
e0e0
e0e0
e0e0
e0e0
71c0
7fc0
1f00
ENDCHAR
STARTCHAR odieresis
ENCODING 246
SWIDTH 602 0
DWIDTH 11 0
BBX 11 13 0 0
BITMAP
1b00
1b00
0000
1f00
7fc0
71c0
e0e0
e0e0
e0e0
e0e0
71c0
7fc0
1f00
ENDCHAR
STARTCHAR divide
ENCODING 247
SWIDTH 602 0
DWIDTH 11 0
BBX 11 10 0 0
BITMAP
0e00
0e00
0e00
0000
ffe0
ffe0
0000
0e00
0e00
0e00
ENDCHAR
STARTCHAR oslash
ENCODING 248
SWIDTH 602 0
DWIDTH 11 0
BBX 11 10 0 0
BITMAP
1fe0
7fc0
71c0
e3e0
e6e0
ece0
f8e0
71c0
7fc0
ff00
ENDCHAR
STARTCHAR ugrave
ENCODING 249
SWIDTH 602 0
DWIDTH 11 0
BBX 9 14 1 0
BITMAP
3800
1c00
0e00
0000
e380
e380
e380
e380
e380
e380
e780
ff80
ff80
7b80
ENDCHAR
STARTCHAR uacute
ENCODING 250
SWIDTH 602 0
DWIDTH 11 0
BBX 9 14 1 0
BITMAP
0e00
1c00
3800
0000
e380
e380
e380
e380
e380
e380
e780
ff80
ff80
7b80
ENDCHAR
STARTCHAR ucircumflex
ENCODING 251
SWIDTH 602 0
DWIDTH 11 0
BBX 9 14 1 0
BITMAP
0c00
1e00
3300
0000
e380
e380
e380
e380
e380
e380
e780
ff80
ff80
7b80
ENDCHAR
STARTCHAR udieresis
ENCODING 252
SWIDTH 602 0
DWIDTH 11 0
BBX 9 13 1 0
BITMAP
3600
3600
0000
e380
e380
e380
e380
e380
e380
e780
ff80
ff80
7b80
ENDCHAR
STARTCHAR yacute
ENCODING 253
SWIDTH 602 0
DWIDTH 11 0
BBX 11 18 0 -4
BITMAP
0700
0e00
1c00
0000
e060
70c0
70c0
3980
3980
3f80
1f00
1f00
0e00
0e00
0c00
0c00
7800
7000
ENDCHAR
STARTCHAR thorn
ENCODING 254
SWIDTH 602 0
DWIDTH 11 0
BBX 10 18 1 -4
BITMAP
e000
e000
e000
e000
ef00
ff80
ffc0
f3c0
e1c0
e1c0
e1c0
e380
ff80
ef00
e000
e000
e000
e000
ENDCHAR
STARTCHAR ydieresis
ENCODING 255
SWIDTH 602 0
DWIDTH 11 0
BBX 11 17 0 -4
BITMAP
1b00
1b00
0000
e060
70c0
70c0
3980
3980
3f80
1f00
1f00
0e00
0e00
0c00
0c00
7800
7000
ENDCHAR
ENDFONT
